<svg width="659" height="118" viewBox="0 0 659 118" fill="none" xmlns="http://www.w3.org/2000/svg">
<path fill-rule="evenodd" clip-rule="evenodd" d="M358.632 3.89534C355.974 25.8481 339.243 42.765 319 42.765C298.875 42.765 282.221 26.0449 279.416 4.27903C273.94 4.75204 268.285 4.99979 262.5 4.99979C249.885 4.99979 237.886 3.82167 227.025 1.69849C95.2192 9.47959 0 31.8642 0 58.2648C0 91.1257 147.522 117.765 329.5 117.765C511.478 117.765 659 91.1257 659 58.2648C659 30.9744 557.254 7.97529 418.525 0.961914C406.753 3.5475 393.507 4.99979 379.5 4.99979C372.312 4.99979 365.323 4.61726 358.632 3.89534Z" fill="#3C1E1C"/>
</svg>
