<svg xmlns="http://www.w3.org/2000/svg" xmlns:xlink="http://www.w3.org/1999/xlink" version="1.2" baseProfile="tiny" x="0px" y="0px" viewBox="0 0 100 125" xml:space="preserve"><path fill="#000000" d="M93.5,50c0-5.9-1.2-11.6-3.4-16.9c1.7-2.5,1.4-6-0.8-8.2C88,23.6,86.3,23,84.7,23c0.1-0.4,0.1-0.8,0.1-1.3  c0-1.7-0.7-3.4-1.9-4.6c-1.2-1.2-2.9-1.9-4.6-1.9c-0.4,0-0.9,0-1.3,0.1c0-1.7-0.6-3.3-1.9-4.6c-2.4-2.4-6.1-2.5-8.6-0.5  C66.1,7,63.3,4.5,60,4.5c-1.8,0-3.4,0.7-4.6,1.9c-1.2-1.7-3.2-2.9-5.4-2.9s-4.2,1.2-5.4,2.9c-1.2-1.2-2.8-1.9-4.6-1.9  c-3.1,0-5.7,2.2-6.4,5.1c-1-0.7-2.3-1.1-3.6-1.1c-3.6,0-6.5,2.9-6.5,6.5v3.5c-1-0.6-2.2-1-3.5-1c-3.6,0-6.5,2.9-6.5,6.5v2.3  c-4.6,7-7,15.2-7,23.7c0,5.9,1.2,11.6,3.4,16.9c-1.7,2.5-1.4,6,0.8,8.2c1.3,1.3,2.9,1.9,4.6,1.9c-0.1,0.4-0.1,0.8-0.1,1.3  c0,1.7,0.7,3.4,1.9,4.6c1.3,1.3,2.9,1.9,4.6,1.9c0.4,0,0.9,0,1.3-0.1c0,1.7,0.6,3.3,1.9,4.6c1.3,1.3,2.9,1.9,4.6,1.9  c1.4,0,2.9-0.5,4-1.4c0.4,3.2,3.1,5.8,6.5,5.8c1.8,0,3.4-0.7,4.6-1.9c1.2,1.7,3.2,2.9,5.4,2.9s4.2-1.2,5.4-2.9  c1.2,1.2,2.8,1.9,4.6,1.9c3.1,0,5.7-2.2,6.4-5.1c1,0.7,2.3,1.1,3.6,1.1c3.6,0,6.5-2.9,6.5-6.5v-3.5c1,0.6,2.2,1,3.5,1  c3.6,0,6.5-2.9,6.5-6.5v-2.3C91.1,66.6,93.5,58.4,93.5,50z M86.5,67.5V36.8l1.3-1.3c1.8,4.6,2.7,9.5,2.7,14.5  C90.5,56.1,89.1,62.1,86.5,67.5z M60,7.5c1.9,0,3.5,1.6,3.5,3.5v2.2l-7,7V11C56.5,9.1,58.1,7.5,60,7.5z M46.5,10  c0-1.9,1.6-3.5,3.5-3.5s3.5,1.6,3.5,3.5v13.2l-7,7V10z M36.5,11c0-1.9,1.6-3.5,3.5-3.5s3.5,1.6,3.5,3.5v22.2l-7,7V11z M26.5,15  c0-1.9,1.6-3.5,3.5-3.5s3.5,1.6,3.5,3.5v28.2l-7,7V15z M20,20.5c1.9,0,3.5,1.6,3.5,3.5v29.2l-7,7V24C16.5,22.1,18.1,20.5,20,20.5z   M13.5,32.5v30.7l-1.3,1.3C10.4,59.9,9.5,55,9.5,50C9.5,43.9,10.9,37.9,13.5,32.5z M12.9,68L68,12.9c1.4-1.4,3.6-1.4,5,0  c1.4,1.4,1.4,3.6,0,5L17.8,73l0,0c-1.4,1.4-3.6,1.4-5,0C11.5,71.6,11.5,69.4,12.9,68z M19.2,80.8c-0.7-0.7-1-1.5-1-2.5  c0-0.9,0.4-1.8,1-2.5l0.7-0.7c0,0,0,0,0,0c0,0,0,0,0,0l55.9-55.9c0.7-0.7,1.5-1,2.5-1s1.8,0.4,2.5,1c0.7,0.7,1,1.5,1,2.5  c0,0.9-0.4,1.8-1,2.5l-0.7,0.7c0,0,0,0,0,0c0,0,0,0,0,0L24.9,80.1c0,0,0,0,0,0c0,0,0,0,0,0l-0.7,0.7C22.8,82.1,20.6,82.1,19.2,80.8z   M27,87.1c-1.4-1.4-1.4-3.6,0-4.9L82.2,27c1.4-1.4,3.6-1.4,5,0c1.4,1.4,1.4,3.6,0,5L32,87.1C30.6,88.5,28.4,88.5,27,87.1z M40,92.5  c-1.9,0-3.5-1.6-3.5-3.5v-2.2l7-7V89C43.5,90.9,41.9,92.5,40,92.5z M53.5,90c0,1.9-1.6,3.5-3.5,3.5s-3.5-1.6-3.5-3.5V76.8l7-7V90z   M63.5,89c0,1.9-1.6,3.5-3.5,3.5s-3.5-1.6-3.5-3.5V66.8l7-7V89z M73.5,85c0,1.9-1.6,3.5-3.5,3.5s-3.5-1.6-3.5-3.5V56.8l7-7V85z   M80,79.5c-1.9,0-3.5-1.6-3.5-3.5V46.8l7-7V76C83.5,77.9,81.9,79.5,80,79.5z"/><text x="0" y="115" fill="#000000" font-size="5px" font-weight="bold" font-family="'Helvetica Neue', Helvetica, Arial-Unicode, Arial, Sans-serif">Created by Juraj Sedlák</text><text x="0" y="120" fill="#000000" font-size="5px" font-weight="bold" font-family="'Helvetica Neue', Helvetica, Arial-Unicode, Arial, Sans-serif">from the Noun Project</text></svg>